<svg width="11" height="11" viewBox="0 0 11 11" fill="none" xmlns="http://www.w3.org/2000/svg">
<path d="M0.568963 4.89193C0.254733 4.89193 0 5.14647 0 5.46047C0 5.77447 0.254733 6.02901 0.568963 6.02901V4.89193ZM10.431 6.02901C10.7452 6.02901 11 5.77447 11 5.46047C11 5.14647 10.7452 4.89193 10.431 4.89193V6.02901ZM0.568963 6.02901H10.431V4.89193H0.568963V6.02901Z" fill="#3FC66E"/>
<path d="M4.93121 0.568543C4.93121 0.254545 4.67647 -1.10464e-08 4.36224 -2.46728e-08C4.04801 -3.82992e-08 3.79328 0.254545 3.79328 0.568543L4.93121 0.568543ZM3.79328 10.3523C3.79328 10.6663 4.04801 10.9208 4.36224 10.9208C4.67647 10.9208 4.93121 10.6663 4.93121 10.3523L3.79328 10.3523ZM3.79328 0.568543L3.79328 10.3523L4.93121 10.3523L4.93121 0.568543L3.79328 0.568543Z" fill="#3FC66E"/>
</svg>
