<svg width="30" height="30" viewBox="0 0 30 30" fill="none" xmlns="http://www.w3.org/2000/svg">
<rect opacity="0.2" width="30" height="30" rx="6.81818" fill="white"/>
<path d="M18.8859 14.8323C19.1788 14.5394 19.1788 14.0646 18.8859 13.7717C18.593 13.4788 18.1182 13.4788 17.8253 13.7717L18.8859 14.8323ZM14.2412 18.4164L13.7109 18.9467L14.2412 19.477L14.7716 18.9467L14.2412 18.4164ZM12.5302 15.6447C12.2373 15.3518 11.7625 15.3518 11.4696 15.6447C11.1767 15.9376 11.1767 16.4125 11.4696 16.7054L12.5302 15.6447ZM17.8253 13.7717L13.7109 17.886L14.7716 18.9467L18.8859 14.8323L17.8253 13.7717ZM14.7716 17.886L12.5302 15.6447L11.4696 16.7054L13.7109 18.9467L14.7716 17.886Z" fill="white"/>
<path d="M7.75 10.1822C7.75 8.83893 8.83893 7.75 10.1822 7.75H19.8178C21.1611 7.75 22.25 8.83893 22.25 10.1822V19.8178C22.25 21.1611 21.1611 22.25 19.8178 22.25H10.1822C8.83893 22.25 7.75 21.1611 7.75 19.8178V10.1822Z" stroke="white" stroke-width="1.5"/>
</svg>
