<svg width="20" height="20" viewBox="0 0 20 20" fill="none" xmlns="http://www.w3.org/2000/svg">
<path d="M0.909091 9.09082C0.407014 9.09082 -3.29136e-08 9.49783 -7.35146e-08 9.99991C-1.14116e-07 10.502 0.407013 10.909 0.909091 10.909L0.909091 9.09082ZM19.0909 10.909C19.593 10.909 20 10.502 20 9.99991C20 9.49784 19.593 9.09082 19.0909 9.09082L19.0909 10.909ZM0.909091 10.909L19.0909 10.909L19.0909 9.09082L0.909091 9.09082L0.909091 10.909Z" fill="white"/>
<path d="M9.09082 0.909091C9.09082 0.407014 8.68381 -1.77911e-08 8.18173 -3.97376e-08C7.67965 -6.16841e-08 7.27264 0.407014 7.27264 0.909091L9.09082 0.909091ZM7.27264 19.0909C7.27264 19.593 7.67965 20 8.18173 20C8.68381 20 9.09082 19.593 9.09082 19.0909L7.27264 19.0909ZM7.27264 0.909091L7.27264 19.0909L9.09082 19.0909L9.09082 0.909091L7.27264 0.909091Z" fill="white"/>
</svg>
