<svg width="343" height="168" viewBox="0 0 343 168" fill="none" xmlns="http://www.w3.org/2000/svg">
<path d="M0.249636 2.18239e-08C0.111766 9.7709e-09 -9.75611e-09 0.111597 -2.17908e-08 0.249258C-3.38256e-08 0.386919 0.111766 0.498516 0.249636 0.498516L0.249636 2.18239e-08ZM342.75 0.498546C342.888 0.498546 343 0.386949 343 0.249288C343 0.111627 342.888 2.99762e-05 342.75 2.99642e-05L342.75 0.498546ZM3.20223 0.498517C3.3401 0.498517 3.45187 0.38692 3.45187 0.249258C3.45187 0.111597 3.3401 2.92001e-07 3.20223 2.79948e-07L3.20223 0.498517ZM9.10741 7.96195e-07C8.96955 7.84143e-07 8.85778 0.111598 8.85778 0.249259C8.85778 0.38692 8.96955 0.498517 9.10741 0.498517L9.10741 7.96195e-07ZM15.0126 0.498518C15.1505 0.498518 15.2623 0.386921 15.2623 0.249259C15.2623 0.111598 15.1505 1.3245e-06 15.0126 1.31244e-06L15.0126 0.498518ZM20.9178 1.82869e-06C20.7799 1.81664e-06 20.6682 0.111599 20.6682 0.24926C20.6682 0.386921 20.7799 0.498518 20.9178 0.498518L20.9178 1.82869e-06ZM26.823 0.498519C26.9608 0.498519 27.0726 0.386922 27.0726 0.24926C27.0726 0.111599 26.9608 2.35699e-06 26.823 2.34494e-06L26.823 0.498519ZM32.7282 2.86119e-06C32.5903 2.84913e-06 32.4786 0.1116 32.4786 0.249261C32.4786 0.386922 32.5903 0.498519 32.7282 0.498519L32.7282 2.86119e-06ZM38.6334 0.49852C38.7712 0.49852 38.883 0.386923 38.883 0.249262C38.883 0.1116 38.7712 3.38948e-06 38.6334 3.37744e-06L38.6334 0.49852ZM44.5385 3.89368e-06C44.4007 3.88163e-06 44.2888 0.111601 44.2888 0.249262C44.2888 0.386923 44.4007 0.49852 44.5385 0.49852L44.5385 3.89368e-06ZM50.4437 0.498521C50.5816 0.498521 50.6933 0.386924 50.6933 0.249263C50.6933 0.111601 50.5816 4.42198e-06 50.4437 4.40993e-06L50.4437 0.498521ZM56.3489 4.92617e-06C56.2111 4.91413e-06 56.0992 0.111602 56.0992 0.249263C56.0992 0.386924 56.2111 0.498521 56.3489 0.498521L56.3489 4.92617e-06ZM62.2541 0.498522C62.3919 0.498522 62.5037 0.386925 62.5037 0.249264C62.5037 0.111602 62.3919 5.45448e-06 62.2541 5.44242e-06L62.2541 0.498522ZM68.1592 5.95867e-06C68.0213 5.94661e-06 67.9096 0.111603 67.9096 0.249264C67.9096 0.386925 68.0213 0.498522 68.1592 0.498522L68.1592 5.95867e-06ZM74.0644 0.498523C74.2023 0.498523 74.3141 0.386926 74.3141 0.249265C74.3141 0.111603 74.2023 6.48697e-06 74.0644 6.47492e-06L74.0644 0.498523ZM79.9696 6.99117e-06C79.8317 6.97911e-06 79.72 0.111604 79.72 0.249265C79.72 0.386926 79.8317 0.498523 79.9696 0.498523L79.9696 6.99117e-06ZM85.8748 0.498524C86.0127 0.498524 86.1245 0.386927 86.1245 0.249266C86.1245 0.111604 86.0127 7.51947e-06 85.8748 7.50741e-06L85.8748 0.498524ZM91.78 8.02366e-06C91.6421 8.01161e-06 91.5304 0.111605 91.5304 0.249266C91.5304 0.386927 91.6421 0.498524 91.78 0.498524L91.78 8.02366e-06ZM97.6852 0.498525C97.8231 0.498525 97.9348 0.386928 97.9348 0.249267C97.9348 0.111605 97.8231 8.55197e-06 97.6852 8.53991e-06L97.6852 0.498525ZM103.59 9.05612e-06C103.452 9.04408e-06 103.34 0.111606 103.34 0.249267C103.34 0.386928 103.452 0.498525 103.59 0.498525L103.59 9.05612e-06ZM109.495 0.498526C109.633 0.498526 109.745 0.386929 109.745 0.249268C109.745 0.111606 109.633 9.58444e-06 109.495 9.57239e-06L109.495 0.498526ZM115.401 1.00887e-05C115.263 1.00766e-05 115.151 0.111607 115.151 0.249268C115.151 0.386929 115.263 0.498526 115.401 0.498526L115.401 1.00887e-05ZM121.306 0.498527C121.444 0.498527 121.556 0.38693 121.556 0.249269C121.556 0.111607 121.444 1.0617e-05 121.306 1.06049e-05L121.306 0.498527ZM127.212 1.11212e-05C127.073 1.11091e-05 126.962 0.111608 126.962 0.249269C126.962 0.38693 127.073 0.498527 127.212 0.498527L127.212 1.11212e-05ZM133.116 0.498528C133.254 0.498528 133.366 0.386931 133.366 0.24927C133.366 0.111609 133.254 1.16494e-05 133.116 1.16374e-05L133.116 0.498528ZM139.021 1.21536e-05C138.884 1.21416e-05 138.772 0.111609 138.772 0.24927C138.772 0.386932 138.884 0.498528 139.021 0.498528L139.021 1.21536e-05ZM144.927 0.498529C145.065 0.498529 145.176 0.386932 145.176 0.249271C145.176 0.11161 145.065 1.26819e-05 144.927 1.26699e-05L144.927 0.498529ZM150.832 1.31862e-05C150.694 1.31741e-05 150.582 0.11161 150.582 0.249271C150.582 0.386933 150.694 0.498529 150.832 0.498529L150.832 1.31862e-05ZM156.738 0.49853C156.875 0.49853 156.987 0.386933 156.987 0.249272C156.987 0.111611 156.875 1.37145e-05 156.738 1.37024e-05L156.738 0.49853ZM162.642 1.42186e-05C162.504 1.42066e-05 162.392 0.111611 162.392 0.249272C162.392 0.386934 162.504 0.49853 162.642 0.49853L162.642 1.42186e-05ZM168.547 0.498531C168.685 0.498531 168.797 0.386934 168.797 0.249273C168.797 0.111612 168.685 1.47469e-05 168.547 1.47349e-05L168.547 0.498531ZM174.453 1.52511e-05C174.315 1.52391e-05 174.203 0.111612 174.203 0.249273C174.203 0.386935 174.315 0.498531 174.453 0.498531L174.453 1.52511e-05ZM180.358 0.498532C180.496 0.498532 180.608 0.386935 180.608 0.249274C180.608 0.111613 180.496 1.57795e-05 180.358 1.57674e-05L180.358 0.498532ZM186.262 1.62836e-05C186.125 1.62715e-05 186.013 0.111613 186.013 0.249274C186.013 0.386936 186.125 0.498533 186.262 0.498533L186.262 1.62836e-05ZM192.168 0.498533C192.306 0.498533 192.418 0.386936 192.418 0.249275C192.418 0.111614 192.306 1.68119e-05 192.168 1.67998e-05L192.168 0.498533ZM198.073 1.73161e-05C197.935 1.73041e-05 197.824 0.111614 197.824 0.249275C197.824 0.386937 197.935 0.498534 198.073 0.498534L198.073 1.73161e-05ZM203.979 0.498534C204.116 0.498534 204.228 0.386937 204.228 0.249276C204.228 0.111615 204.116 1.78444e-05 203.979 1.78324e-05L203.979 0.498534ZM209.884 1.83486e-05C209.746 1.83366e-05 209.634 0.111615 209.634 0.249276C209.634 0.386938 209.746 0.498535 209.884 0.498535L209.884 1.83486e-05ZM215.788 0.498535C215.926 0.498535 216.038 0.386938 216.038 0.249277C216.038 0.111616 215.926 1.88769e-05 215.788 1.88648e-05L215.788 0.498535ZM221.694 1.93811e-05C221.556 1.9369e-05 221.444 0.111616 221.444 0.249277C221.444 0.386939 221.556 0.498536 221.694 0.498536L221.694 1.93811e-05ZM227.599 0.498536C227.737 0.498536 227.849 0.386939 227.849 0.249278C227.849 0.111617 227.737 1.99094e-05 227.599 1.98974e-05L227.599 0.498536ZM233.505 2.04136e-05C233.367 2.04016e-05 233.255 0.111617 233.255 0.249279C233.255 0.38694 233.367 0.498537 233.505 0.498537L233.505 2.04136e-05ZM239.41 0.498537C239.548 0.498537 239.66 0.38694 239.66 0.249279C239.66 0.111618 239.548 2.09419e-05 239.41 2.09299e-05L239.41 0.498537ZM245.314 2.14461e-05C245.177 2.1434e-05 245.065 0.111618 245.065 0.24928C245.065 0.386941 245.177 0.498538 245.314 0.498538L245.314 2.14461e-05ZM251.22 0.498538C251.358 0.498538 251.469 0.386941 251.469 0.24928C251.469 0.111619 251.358 2.19744e-05 251.22 2.19623e-05L251.22 0.498538ZM257.125 2.24786e-05C256.987 2.24666e-05 256.876 0.111619 256.876 0.249281C256.876 0.386942 256.987 0.498539 257.125 0.498539L257.125 2.24786e-05ZM263.031 0.498539C263.168 0.498539 263.28 0.386942 263.28 0.249281C263.28 0.11162 263.168 2.30069e-05 263.031 2.29949e-05L263.031 0.498539ZM268.935 2.3511e-05C268.797 2.3499e-05 268.685 0.11162 268.685 0.249282C268.685 0.386943 268.797 0.49854 268.935 0.49854L268.935 2.3511e-05ZM274.84 0.49854C274.978 0.49854 275.09 0.386943 275.09 0.249282C275.09 0.111621 274.978 2.40394e-05 274.84 2.40273e-05L274.84 0.49854ZM280.746 2.45436e-05C280.608 2.45315e-05 280.496 0.111621 280.496 0.249283C280.496 0.386944 280.608 0.498541 280.746 0.498541L280.746 2.45436e-05ZM286.651 0.498541C286.789 0.498541 286.901 0.386944 286.901 0.249283C286.901 0.111622 286.789 2.50719e-05 286.651 2.50598e-05L286.651 0.498541ZM292.557 2.55761e-05C292.419 2.55641e-05 292.307 0.111622 292.307 0.249284C292.307 0.386945 292.419 0.498542 292.557 0.498542L292.557 2.55761e-05ZM298.461 0.498542C298.599 0.498542 298.711 0.386945 298.711 0.249284C298.711 0.111623 298.599 2.61043e-05 298.461 2.60923e-05L298.461 0.498542ZM304.366 2.66085e-05C304.229 2.65965e-05 304.117 0.111623 304.117 0.249285C304.117 0.386946 304.229 0.498543 304.366 0.498543L304.366 2.66085e-05ZM310.272 0.498543C310.41 0.498543 310.521 0.386947 310.521 0.249285C310.521 0.111624 310.41 2.71369e-05 310.272 2.71248e-05L310.272 0.498543ZM316.177 2.76411e-05C316.039 2.7629e-05 315.927 0.111624 315.927 0.249286C315.927 0.386947 316.039 0.498544 316.177 0.498544L316.177 2.76411e-05ZM322.082 0.498544C322.22 0.498544 322.332 0.386948 322.332 0.249286C322.332 0.111625 322.22 2.81694e-05 322.082 2.81573e-05L322.082 0.498544ZM327.987 2.86735e-05C327.849 2.86615e-05 327.737 0.111625 327.737 0.249287C327.737 0.386948 327.849 0.498545 327.987 0.498545L327.987 2.86735e-05ZM333.892 0.498545C334.03 0.498545 334.142 0.386949 334.142 0.249287C334.142 0.111626 334.03 2.92018e-05 333.892 2.91898e-05L333.892 0.498545ZM339.798 2.97061e-05C339.66 2.9694e-05 339.548 0.111627 339.548 0.249288C339.548 0.386949 339.66 0.498546 339.798 0.498546L339.798 2.97061e-05ZM0.249636 0.498516L3.20223 0.498517L3.20223 2.79948e-07L0.249636 2.18239e-08L0.249636 0.498516ZM9.10741 0.498517L15.0126 0.498518L15.0126 1.31244e-06L9.10741 7.96195e-07L9.10741 0.498517ZM20.9178 0.498518L26.823 0.498519L26.823 2.34494e-06L20.9178 1.82869e-06L20.9178 0.498518ZM32.7282 0.498519L38.6334 0.49852L38.6334 3.37744e-06L32.7282 2.86119e-06L32.7282 0.498519ZM44.5385 0.49852L50.4437 0.498521L50.4437 4.40993e-06L44.5385 3.89368e-06L44.5385 0.49852ZM56.3489 0.498521L62.2541 0.498522L62.2541 5.44242e-06L56.3489 4.92617e-06L56.3489 0.498521ZM68.1592 0.498522L74.0644 0.498523L74.0644 6.47492e-06L68.1592 5.95867e-06L68.1592 0.498522ZM79.9696 0.498523L85.8748 0.498524L85.8748 7.50741e-06L79.9696 6.99117e-06L79.9696 0.498523ZM91.78 0.498524L97.6852 0.498525L97.6852 8.53991e-06L91.78 8.02366e-06L91.78 0.498524ZM103.59 0.498525L109.495 0.498526L109.495 9.57239e-06L103.59 9.05612e-06L103.59 0.498525ZM115.401 0.498526L121.306 0.498527L121.306 1.06049e-05L115.401 1.00887e-05L115.401 0.498526ZM127.212 0.498527L133.116 0.498528L133.116 1.16374e-05L127.212 1.11212e-05L127.212 0.498527ZM139.021 0.498528L144.927 0.498529L144.927 1.26699e-05L139.021 1.21536e-05L139.021 0.498528ZM150.832 0.498529L156.738 0.49853L156.738 1.37024e-05L150.832 1.31862e-05L150.832 0.498529ZM162.642 0.49853L168.547 0.498531L168.547 1.47349e-05L162.642 1.42186e-05L162.642 0.49853ZM174.453 0.498531L180.358 0.498532L180.358 1.57674e-05L174.453 1.52511e-05L174.453 0.498531ZM186.262 0.498533L192.168 0.498533L192.168 1.67998e-05L186.262 1.62836e-05L186.262 0.498533ZM198.073 0.498534L203.979 0.498534L203.979 1.78324e-05L198.073 1.73161e-05L198.073 0.498534ZM209.884 0.498535L215.788 0.498535L215.788 1.88648e-05L209.884 1.83486e-05L209.884 0.498535ZM221.694 0.498536L227.599 0.498536L227.599 1.98974e-05L221.694 1.93811e-05L221.694 0.498536ZM233.505 0.498537L239.41 0.498537L239.41 2.09299e-05L233.505 2.04136e-05L233.505 0.498537ZM245.314 0.498538L251.22 0.498538L251.22 2.19623e-05L245.314 2.14461e-05L245.314 0.498538ZM257.125 0.498539L263.031 0.498539L263.031 2.29949e-05L257.125 2.24786e-05L257.125 0.498539ZM268.935 0.49854L274.84 0.49854L274.84 2.40273e-05L268.935 2.3511e-05L268.935 0.49854ZM280.746 0.498541L286.651 0.498541L286.651 2.50598e-05L280.746 2.45436e-05L280.746 0.498541ZM292.557 0.498542L298.461 0.498542L298.461 2.60923e-05L292.557 2.55761e-05L292.557 0.498542ZM304.366 0.498543L310.272 0.498543L310.272 2.71248e-05L304.366 2.66085e-05L304.366 0.498543ZM316.177 0.498544L322.082 0.498544L322.082 2.81573e-05L316.177 2.76411e-05L316.177 0.498544ZM327.987 0.498545L333.892 0.498545L333.892 2.91898e-05L327.987 2.86735e-05L327.987 0.498545ZM339.798 0.498546L342.75 0.498546L342.75 2.99642e-05L339.798 2.97061e-05L339.798 0.498546Z" fill="#D0CCC7"/>
<path d="M0.249636 167.501C0.111766 167.501 -9.7709e-09 167.613 -2.18239e-08 167.751C-3.38769e-08 167.888 0.111766 168 0.249636 168L0.249636 167.501ZM342.75 168C342.888 168 343 167.888 343 167.751C343 167.613 342.888 167.501 342.75 167.501L342.75 168ZM3.20223 168C3.3401 168 3.45187 167.888 3.45187 167.751C3.45187 167.613 3.3401 167.501 3.20223 167.501L3.20223 168ZM9.10741 167.501C8.96955 167.501 8.85778 167.613 8.85778 167.751C8.85778 167.888 8.96955 168 9.10741 168L9.10741 167.501ZM15.0126 168C15.1505 168 15.2623 167.888 15.2623 167.751C15.2623 167.613 15.1505 167.501 15.0126 167.501L15.0126 168ZM20.9178 167.501C20.7799 167.501 20.6682 167.613 20.6682 167.751C20.6682 167.888 20.7799 168 20.9178 168L20.9178 167.501ZM26.823 168C26.9608 168 27.0726 167.888 27.0726 167.751C27.0726 167.613 26.9608 167.501 26.823 167.501L26.823 168ZM32.7282 167.501C32.5903 167.501 32.4786 167.613 32.4786 167.751C32.4786 167.888 32.5903 168 32.7282 168L32.7282 167.501ZM38.6334 168C38.7712 168 38.883 167.888 38.883 167.751C38.883 167.613 38.7712 167.501 38.6334 167.501L38.6334 168ZM44.5385 167.501C44.4007 167.501 44.2888 167.613 44.2888 167.751C44.2888 167.888 44.4007 168 44.5385 168L44.5385 167.501ZM50.4437 168C50.5816 168 50.6933 167.888 50.6933 167.751C50.6933 167.613 50.5816 167.501 50.4437 167.501L50.4437 168ZM56.3489 167.501C56.2111 167.501 56.0992 167.613 56.0992 167.751C56.0992 167.888 56.2111 168 56.3489 168L56.3489 167.501ZM62.2541 168C62.3919 168 62.5037 167.888 62.5037 167.751C62.5037 167.613 62.3919 167.501 62.2541 167.501L62.2541 168ZM68.1592 167.501C68.0213 167.501 67.9096 167.613 67.9096 167.751C67.9096 167.888 68.0213 168 68.1592 168L68.1592 167.501ZM74.0644 168C74.2023 168 74.3141 167.888 74.3141 167.751C74.3141 167.613 74.2023 167.501 74.0644 167.501L74.0644 168ZM79.9696 167.501C79.8317 167.501 79.72 167.613 79.72 167.751C79.72 167.888 79.8317 168 79.9696 168L79.9696 167.501ZM85.8748 168C86.0127 168 86.1245 167.888 86.1245 167.751C86.1245 167.613 86.0127 167.501 85.8748 167.501L85.8748 168ZM91.78 167.501C91.6421 167.501 91.5304 167.613 91.5304 167.751C91.5304 167.888 91.6421 168 91.78 168L91.78 167.501ZM97.6852 168C97.8231 168 97.9348 167.888 97.9348 167.751C97.9348 167.613 97.8231 167.501 97.6852 167.501L97.6852 168ZM103.59 167.501C103.452 167.501 103.34 167.613 103.34 167.751C103.34 167.888 103.452 168 103.59 168L103.59 167.501ZM109.495 168C109.633 168 109.745 167.888 109.745 167.751C109.745 167.613 109.633 167.501 109.495 167.501L109.495 168ZM115.401 167.501C115.263 167.501 115.151 167.613 115.151 167.751C115.151 167.888 115.263 168 115.401 168L115.401 167.501ZM121.306 168C121.444 168 121.556 167.888 121.556 167.751C121.556 167.613 121.444 167.501 121.306 167.501L121.306 168ZM127.212 167.501C127.073 167.501 126.962 167.613 126.962 167.751C126.962 167.888 127.073 168 127.212 168L127.212 167.501ZM133.116 168C133.254 168 133.366 167.888 133.366 167.751C133.366 167.613 133.254 167.501 133.116 167.501L133.116 168ZM139.021 167.501C138.884 167.501 138.772 167.613 138.772 167.751C138.772 167.888 138.884 168 139.021 168L139.021 167.501ZM144.927 168C145.065 168 145.176 167.888 145.176 167.751C145.176 167.613 145.065 167.501 144.927 167.501L144.927 168ZM150.832 167.501C150.694 167.501 150.582 167.613 150.582 167.751C150.582 167.888 150.694 168 150.832 168L150.832 167.501ZM156.738 168C156.875 168 156.987 167.888 156.987 167.751C156.987 167.613 156.875 167.501 156.738 167.501L156.738 168ZM162.642 167.501C162.504 167.501 162.392 167.613 162.392 167.751C162.392 167.888 162.504 168 162.642 168L162.642 167.501ZM168.547 168C168.685 168 168.797 167.888 168.797 167.751C168.797 167.613 168.685 167.501 168.547 167.501L168.547 168ZM174.453 167.501C174.315 167.501 174.203 167.613 174.203 167.751C174.203 167.888 174.315 168 174.453 168L174.453 167.501ZM180.358 168C180.496 168 180.608 167.888 180.608 167.751C180.608 167.613 180.496 167.501 180.358 167.501L180.358 168ZM186.262 167.501C186.125 167.501 186.013 167.613 186.013 167.751C186.013 167.888 186.125 168 186.262 168L186.262 167.501ZM192.168 168C192.306 168 192.418 167.888 192.418 167.751C192.418 167.613 192.306 167.501 192.168 167.501L192.168 168ZM198.073 167.501C197.935 167.501 197.824 167.613 197.824 167.751C197.824 167.888 197.935 168 198.073 168L198.073 167.501ZM203.979 168C204.116 168 204.228 167.888 204.228 167.751C204.228 167.613 204.116 167.501 203.979 167.501L203.979 168ZM209.884 167.501C209.746 167.501 209.634 167.613 209.634 167.751C209.634 167.888 209.746 168 209.884 168L209.884 167.501ZM215.788 168C215.926 168 216.038 167.888 216.038 167.751C216.038 167.613 215.926 167.501 215.788 167.501L215.788 168ZM221.694 167.501C221.556 167.501 221.444 167.613 221.444 167.751C221.444 167.888 221.556 168 221.694 168L221.694 167.501ZM227.599 168C227.737 168 227.849 167.888 227.849 167.751C227.849 167.613 227.737 167.501 227.599 167.501L227.599 168ZM233.505 167.501C233.367 167.501 233.255 167.613 233.255 167.751C233.255 167.888 233.367 168 233.505 168L233.505 167.501ZM239.41 168C239.548 168 239.66 167.888 239.66 167.751C239.66 167.613 239.548 167.501 239.41 167.501L239.41 168ZM245.314 167.501C245.177 167.501 245.065 167.613 245.065 167.751C245.065 167.888 245.177 168 245.314 168L245.314 167.501ZM251.22 168C251.358 168 251.469 167.888 251.469 167.751C251.469 167.613 251.358 167.501 251.22 167.501L251.22 168ZM257.125 167.501C256.987 167.501 256.876 167.613 256.876 167.751C256.876 167.888 256.987 168 257.125 168L257.125 167.501ZM263.031 168C263.168 168 263.28 167.888 263.28 167.751C263.28 167.613 263.168 167.501 263.031 167.501L263.031 168ZM268.935 167.501C268.797 167.501 268.685 167.613 268.685 167.751C268.685 167.888 268.797 168 268.935 168L268.935 167.501ZM274.84 168C274.978 168 275.09 167.888 275.09 167.751C275.09 167.613 274.978 167.501 274.84 167.501L274.84 168ZM280.746 167.501C280.608 167.501 280.496 167.613 280.496 167.751C280.496 167.888 280.608 168 280.746 168L280.746 167.501ZM286.651 168C286.789 168 286.901 167.888 286.901 167.751C286.901 167.613 286.789 167.501 286.651 167.501L286.651 168ZM292.557 167.501C292.419 167.501 292.307 167.613 292.307 167.751C292.307 167.888 292.419 168 292.557 168L292.557 167.501ZM298.461 168C298.599 168 298.711 167.888 298.711 167.751C298.711 167.613 298.599 167.501 298.461 167.501L298.461 168ZM304.366 167.501C304.229 167.501 304.117 167.613 304.117 167.751C304.117 167.888 304.229 168 304.366 168L304.366 167.501ZM310.272 168C310.41 168 310.521 167.888 310.521 167.751C310.521 167.613 310.41 167.501 310.272 167.501L310.272 168ZM316.177 167.501C316.039 167.501 315.927 167.613 315.927 167.751C315.927 167.888 316.039 168 316.177 168L316.177 167.501ZM322.082 168C322.22 168 322.332 167.888 322.332 167.751C322.332 167.613 322.22 167.501 322.082 167.501L322.082 168ZM327.987 167.501C327.849 167.501 327.737 167.613 327.737 167.751C327.737 167.888 327.849 168 327.987 168L327.987 167.501ZM333.892 168C334.03 168 334.142 167.888 334.142 167.751C334.142 167.613 334.03 167.501 333.892 167.501L333.892 168ZM339.798 167.501C339.66 167.501 339.548 167.613 339.548 167.751C339.548 167.888 339.66 168 339.798 168L339.798 167.501ZM0.249636 168L3.20223 168L3.20223 167.501L0.249636 167.501L0.249636 168ZM9.10741 168L15.0126 168L15.0126 167.501L9.10741 167.501L9.10741 168ZM20.9178 168L26.823 168L26.823 167.501L20.9178 167.501L20.9178 168ZM32.7282 168L38.6334 168L38.6334 167.501L32.7282 167.501L32.7282 168ZM44.5385 168L50.4437 168L50.4437 167.501L44.5385 167.501L44.5385 168ZM56.3489 168L62.2541 168L62.2541 167.501L56.3489 167.501L56.3489 168ZM68.1592 168L74.0644 168L74.0644 167.501L68.1592 167.501L68.1592 168ZM79.9696 168L85.8748 168L85.8748 167.501L79.9696 167.501L79.9696 168ZM91.78 168L97.6852 168L97.6852 167.501L91.78 167.501L91.78 168ZM103.59 168L109.495 168L109.495 167.501L103.59 167.501L103.59 168ZM115.401 168L121.306 168L121.306 167.501L115.401 167.501L115.401 168ZM127.212 168L133.116 168L133.116 167.501L127.212 167.501L127.212 168ZM139.021 168L144.927 168L144.927 167.501L139.021 167.501L139.021 168ZM150.832 168L156.738 168L156.738 167.501L150.832 167.501L150.832 168ZM162.642 168L168.547 168L168.547 167.501L162.642 167.501L162.642 168ZM174.453 168L180.358 168L180.358 167.501L174.453 167.501L174.453 168ZM186.262 168L192.168 168L192.168 167.501L186.262 167.501L186.262 168ZM198.073 168L203.979 168L203.979 167.501L198.073 167.501L198.073 168ZM209.884 168L215.788 168L215.788 167.501L209.884 167.501L209.884 168ZM221.694 168L227.599 168L227.599 167.501L221.694 167.501L221.694 168ZM233.505 168L239.41 168L239.41 167.501L233.505 167.501L233.505 168ZM245.314 168L251.22 168L251.22 167.501L245.314 167.501L245.314 168ZM257.125 168L263.031 168L263.031 167.501L257.125 167.501L257.125 168ZM268.935 168L274.84 168L274.84 167.501L268.935 167.501L268.935 168ZM280.746 168L286.651 168L286.651 167.501L280.746 167.501L280.746 168ZM292.557 168L298.461 168L298.461 167.501L292.557 167.501L292.557 168ZM304.366 168L310.272 168L310.272 167.501L304.366 167.501L304.366 168ZM316.177 168L322.082 168L322.082 167.501L316.177 167.501L316.177 168ZM327.987 168L333.892 168L333.892 167.501L327.987 167.501L327.987 168ZM339.798 168L342.75 168L342.75 167.501L339.798 167.501L339.798 168Z" fill="#D0CCC7"/>
</svg>
