<svg width="29" height="27" viewBox="0 0 29 27" fill="none" xmlns="http://www.w3.org/2000/svg">
<path d="M1.06579 7.10524C1.06579 4.55454 3.13353 2.48681 5.68422 2.48681H22.7369C25.2876 2.48681 27.3553 4.55453 27.3553 7.10524V21.3157C27.3553 23.8664 25.2876 25.9342 22.7369 25.9342H5.68422C3.13355 25.9342 1.06579 23.8664 1.06579 21.3157V7.10524Z" stroke="#311F09" stroke-width="2.125"/>
<path d="M1.4204 12.0789H26.9994V9.94734H1.4204V12.0789Z" fill="#311F09"/>
<path d="M7.10397 1.06579C7.10397 0.47717 6.6268 -3.12867e-08 6.03818 -6.98808e-08C5.44956 -1.08475e-07 4.97239 0.47717 4.97239 1.06579L7.10397 1.06579ZM4.97239 5.32896C4.97239 5.91757 5.44956 6.39475 6.03818 6.39475C6.6268 6.39475 7.10397 5.91757 7.10397 5.32896L4.97239 5.32896ZM4.97239 1.06579L4.97239 5.32896L7.10397 5.32896L7.10397 1.06579L4.97239 1.06579Z" fill="#311F09"/>
<path d="M22.7362 1.06579C22.7362 0.47717 22.2591 -3.12867e-08 21.6704 -6.98808e-08C21.0818 -1.08475e-07 20.6046 0.47717 20.6046 1.06579L22.7362 1.06579ZM20.6046 5.32896C20.6046 5.91757 21.0818 6.39475 21.6704 6.39475C22.2591 6.39475 22.7362 5.91757 22.7362 5.32896L20.6046 5.32896ZM20.6046 1.06579L20.6046 5.32896L22.7362 5.32896L22.7362 1.06579L20.6046 1.06579Z" fill="#311F09"/>
</svg>
