<svg width="24" height="24" viewBox="0 0 24 24" fill="none" xmlns="http://www.w3.org/2000/svg">
<path d="M6 12C5.44771 12 5 12.4477 5 13C5 13.5523 5.44771 14 6 14V12ZM20 14C20.5523 14 21 13.5523 21 13C21 12.4477 20.5523 12 20 12V14ZM6 14H20V12H6V14Z" fill="#F54748"/>
<path d="M13.7071 5.29289C13.3166 4.90237 12.6834 4.90237 12.2929 5.29289C11.9024 5.68342 11.9024 6.31658 12.2929 6.70711L13.7071 5.29289ZM20 13L20.7071 13.7071C21.0976 13.3166 21.0976 12.6834 20.7071 12.2929L20 13ZM12.2929 19.2929C11.9024 19.6834 11.9024 20.3166 12.2929 20.7071C12.6834 21.0976 13.3166 21.0976 13.7071 20.7071L12.2929 19.2929ZM12.2929 6.70711L19.2929 13.7071L20.7071 12.2929L13.7071 5.29289L12.2929 6.70711ZM19.2929 12.2929L12.2929 19.2929L13.7071 20.7071L20.7071 13.7071L19.2929 12.2929Z" fill="#F54748"/>
</svg>
