<svg width="18" height="19" viewBox="0 0 18 19" fill="none" xmlns="http://www.w3.org/2000/svg">
<path d="M14.1867 3.04V15.2H15.7067V3.04H14.1867ZM11.9067 17.48H5.82667V19H11.9067V17.48ZM3.54667 15.2V3.04H2.02667V15.2H3.54667ZM5.82667 17.48C4.56746 17.48 3.54667 16.4592 3.54667 15.2H2.02667C2.02667 17.2987 3.72798 19 5.82667 19V17.48ZM14.1867 15.2C14.1867 16.4592 13.1658 17.48 11.9067 17.48V19C14.0054 19 15.7067 17.2987 15.7067 15.2H14.1867Z" fill="#FF3838"/>
<path d="M6.84 0C6.42026 0 6.08 0.340263 6.08 0.76C6.08 1.17974 6.42026 1.52 6.84 1.52V0ZM10.8933 1.52C11.3131 1.52 11.6533 1.17974 11.6533 0.76C11.6533 0.340263 11.3131 0 10.8933 0V1.52ZM6.84 1.52H10.8933V0H6.84V1.52Z" fill="#FF3838"/>
<path d="M6.08 7.85333C6.08 7.4336 5.73974 7.09333 5.32 7.09333C4.90026 7.09333 4.56 7.4336 4.56 7.85333L6.08 7.85333ZM4.56 14.9467C4.56 15.3664 4.90026 15.7067 5.32 15.7067C5.73974 15.7067 6.08 15.3664 6.08 14.9467L4.56 14.9467ZM4.56 7.85333L4.56 14.9467L6.08 14.9467L6.08 7.85333L4.56 7.85333Z" fill="#FF3838"/>
<path d="M10.1333 7.85333C10.1333 7.4336 9.79307 7.09333 9.37333 7.09333C8.9536 7.09333 8.61333 7.4336 8.61333 7.85333L10.1333 7.85333ZM8.61333 14.9467C8.61333 15.3664 8.9536 15.7067 9.37333 15.7067C9.79307 15.7067 10.1333 15.3664 10.1333 14.9467L8.61333 14.9467ZM8.61333 7.85333L8.61333 14.9467L10.1333 14.9467L10.1333 7.85333L8.61333 7.85333Z" fill="#FF3838"/>
<path d="M0.76 3.04C0.340263 3.04 0 3.38026 0 3.8C0 4.21974 0.340263 4.56 0.76 4.56V3.04ZM16.9733 4.56C17.3931 4.56 17.7333 4.21974 17.7333 3.8C17.7333 3.38026 17.3931 3.04 16.9733 3.04V4.56ZM0.76 4.56H16.9733V3.04H0.76V4.56Z" fill="#FF3838"/>
</svg>
