<svg width="13" height="8" viewBox="0 0 13 8" fill="none" xmlns="http://www.w3.org/2000/svg">
<path d="M12.8359 0.971089C13.0546 0.748922 13.0546 0.388717 12.8359 0.166551C12.6172 -0.055615 12.2626 -0.0556168 12.0439 0.16655L12.8359 0.971089ZM6.5 6.60284L6.10401 7.00511L6.5 7.40738L6.89599 7.00511L6.5 6.60284ZM0.956128 0.16655C0.737428 -0.0556168 0.382844 -0.055615 0.164144 0.166551C-0.0545552 0.388717 -0.0545571 0.748922 0.164143 0.971089L0.956128 0.16655ZM12.0439 0.16655L6.10401 6.20057L6.89599 7.00511L12.8359 0.971089L12.0439 0.16655ZM6.89599 6.20057L0.956128 0.16655L0.164143 0.971089L6.10401 7.00511L6.89599 6.20057Z" fill="#311F09"/>
</svg>
