<svg width="24" height="24" viewBox="0 0 24 24" fill="none" xmlns="http://www.w3.org/2000/svg">
<path d="M23.6997 3.1993C24.1 2.799 24.1 2.14999 23.6997 1.7497C23.2994 1.3494 22.6504 1.3494 22.2501 1.7497L23.6997 3.1993ZM1.74965 22.2502C1.34934 22.6505 1.34935 23.2995 1.74965 23.6998C2.14994 24.1001 2.79894 24.1001 3.19925 23.6998L1.74965 22.2502ZM22.2501 1.7497L1.74965 22.2502L3.19925 23.6998L23.6997 3.1993L22.2501 1.7497Z" fill="white"/>
<path d="M20.8005 22.2503C21.2008 22.6506 21.8498 22.6506 22.2501 22.2503C22.6504 21.85 22.6504 21.201 22.2501 20.8007L20.8005 22.2503ZM1.74965 0.3002C1.34934 -0.100107 0.700345 -0.100096 0.300049 0.3002C-0.100248 0.700496 -0.100258 1.34949 0.300049 1.7498L1.74965 0.3002ZM22.2501 20.8007L1.74965 0.3002L0.300049 1.7498L20.8005 22.2503L22.2501 20.8007Z" fill="white"/>
</svg>
