<svg width="29" height="29" viewBox="0 0 29 29" fill="none" xmlns="http://www.w3.org/2000/svg">
<path d="M27.912 14.4997C27.912 21.907 21.9072 27.9119 14.4998 27.9119C7.09235 27.9119 1.08748 21.907 1.08748 14.4997C1.08748 7.09233 7.09235 1.08748 14.4998 1.08748C21.9072 1.08748 27.912 7.09233 27.912 14.4997Z" stroke="#311F09" stroke-width="2.125"/>
<path d="M15.5865 15.5871H14.499V16.1467L14.9544 16.472L15.5865 15.5871ZM16.674 6.8873C16.674 6.2867 16.1871 5.79983 15.5865 5.79983C14.9859 5.79983 14.499 6.2867 14.499 6.8873H16.674ZM20.0293 20.097C20.518 20.446 21.1972 20.3328 21.5463 19.8441C21.8954 19.3553 21.7822 18.6761 21.2934 18.3271L20.0293 20.097ZM16.674 15.5871V6.8873H14.499V15.5871H16.674ZM14.9544 16.472L20.0293 20.097L21.2934 18.3271L16.2186 14.7022L14.9544 16.472Z" fill="#311F09"/>
</svg>
