<svg width="24" height="24" viewBox="0 0 24 24" fill="none" xmlns="http://www.w3.org/2000/svg">
<path d="M23.6998 3.19943C24.1001 2.79913 24.1001 2.15012 23.6998 1.74983C23.2995 1.34953 22.6505 1.34953 22.2502 1.74983L23.6998 3.19943ZM1.74965 22.2503C1.34934 22.6507 1.34935 23.2997 1.74965 23.7C2.14995 24.1003 2.79895 24.1003 3.19925 23.7L1.74965 22.2503ZM22.2502 1.74983L1.74965 22.2503L3.19925 23.7L23.6998 3.19943L22.2502 1.74983Z" fill="#EA1010"/>
<path d="M20.8006 22.2503C21.2009 22.6506 21.8499 22.6506 22.2502 22.2503C22.6505 21.85 22.6505 21.201 22.2502 20.8007L20.8006 22.2503ZM1.74965 0.300201C1.34935 -0.100107 0.700347 -0.100097 0.300049 0.300201C-0.100248 0.700498 -0.100258 1.3495 0.300049 1.7498L1.74965 0.300201ZM22.2502 20.8007L1.74965 0.300201L0.300049 1.7498L20.8006 22.2503L22.2502 20.8007Z" fill="#EA1010"/>
</svg>
