<svg width="10" height="18" viewBox="0 0 10 18" fill="none" xmlns="http://www.w3.org/2000/svg">
<path d="M8.69484 17.614C8.99339 17.9126 9.47744 17.9126 9.77598 17.614C10.0745 17.3155 10.0745 16.8314 9.77598 16.5329L8.69484 17.614ZM1.08092 8.91896L0.540352 8.37839L-0.000219558 8.91896L0.540352 9.45953L1.08092 8.91896ZM9.77598 1.30505C10.0745 1.0065 10.0745 0.522442 9.77598 0.223902C9.47744 -0.0746373 8.99339 -0.0746475 8.69484 0.223902L9.77598 1.30505ZM9.77598 16.5329L1.62149 8.37839L0.540352 9.45953L8.69484 17.614L9.77598 16.5329ZM1.62149 9.45953L9.77598 1.30505L8.69484 0.223902L0.540352 8.37839L1.62149 9.45953Z" fill="white"/>
</svg>
