<svg width="24" height="14" viewBox="0 0 24 14" fill="none" xmlns="http://www.w3.org/2000/svg">
<path d="M23.6973 1.76481C24.1011 1.36104 24.1011 0.706416 23.6973 0.302639C23.2936 -0.101139 22.6389 -0.101128 22.2352 0.302639L23.6973 1.76481ZM12 12L11.2689 12.7311L12 13.4621L12.7311 12.7311L12 12ZM1.76483 0.302639C1.36106 -0.101128 0.706439 -0.101139 0.302662 0.302639C-0.101115 0.706416 -0.101104 1.36104 0.302662 1.76481L1.76483 0.302639ZM22.2352 0.302639L11.2689 11.2689L12.7311 12.7311L23.6973 1.76481L22.2352 0.302639ZM12.7311 11.2689L1.76483 0.302639L0.302662 1.76481L11.2689 12.7311L12.7311 11.2689Z" fill="#5C4529"/>
</svg>
