<svg width="15" height="16" viewBox="0 0 15 16" fill="none" xmlns="http://www.w3.org/2000/svg">
<path d="M9.16604 3.92497C9.44485 3.59932 9.44462 3.07159 9.16554 2.74626C8.88645 2.42094 8.43419 2.4212 8.15539 2.74685L9.16604 3.92497ZM5.08928 7.50744L4.58396 6.91838C4.30535 7.2438 4.30535 7.77107 4.58396 8.09649L5.08928 7.50744ZM8.15539 12.2681C8.43419 12.5937 8.88645 12.5939 9.16554 12.2686C9.44462 11.9433 9.44485 11.4156 9.16604 11.0899L8.15539 12.2681ZM8.15539 2.74685L4.58396 6.91838L5.59461 8.09649L9.16604 3.92497L8.15539 2.74685ZM4.58396 8.09649L8.15539 12.2681L9.16604 11.0899L5.59461 6.91838L4.58396 8.09649Z" fill="black"/>
</svg>
