<svg width="24" height="24" viewBox="0 0 24 24" fill="none" xmlns="http://www.w3.org/2000/svg">
<path d="M18 12C18.5523 12 19 12.4477 19 13C19 13.5523 18.5523 14 18 14V12ZM4 14C3.4477 14 3 13.5523 3 13C3 12.4477 3.4477 12 4 12V14ZM18 14H4V12H18V14Z" fill="#A0978C"/>
<path d="M10.2929 5.29289C10.6834 4.90237 11.3166 4.90237 11.7071 5.29289C12.0976 5.68342 12.0976 6.31658 11.7071 6.70711L10.2929 5.29289ZM4 13L3.29289 13.7071C2.90237 13.3166 2.90237 12.6834 3.29289 12.2929L4 13ZM11.7071 19.2929C12.0976 19.6834 12.0976 20.3166 11.7071 20.7071C11.3166 21.0976 10.6834 21.0976 10.2929 20.7071L11.7071 19.2929ZM11.7071 6.70711L4.70711 13.7071L3.29289 12.2929L10.2929 5.29289L11.7071 6.70711ZM4.70711 12.2929L11.7071 19.2929L10.2929 20.7071L3.29289 13.7071L4.70711 12.2929Z" fill="#A0978C"/>
</svg>
