<svg width="15" height="16" viewBox="0 0 15 16" fill="none" xmlns="http://www.w3.org/2000/svg">
<path d="M5.83396 3.92497C5.55515 3.59932 5.55538 3.07159 5.83446 2.74626C6.11355 2.42094 6.56581 2.4212 6.84461 2.74685L5.83396 3.92497ZM9.91072 7.50744L10.416 6.91838C10.6947 7.24381 10.6947 7.77108 10.416 8.0965L9.91072 7.50744ZM6.84461 12.268C6.56581 12.5937 6.11355 12.594 5.83446 12.2687C5.55538 11.9433 5.55515 11.4156 5.83396 11.0899L6.84461 12.268ZM6.84461 2.74685L10.416 6.91838L9.40539 8.0965L5.83396 3.92497L6.84461 2.74685ZM10.416 8.0965L6.84461 12.268L5.83396 11.0899L9.40539 6.91838L10.416 8.0965Z" fill="black"/>
</svg>
