<svg width="30" height="30" viewBox="0 0 30 30" fill="none" xmlns="http://www.w3.org/2000/svg">
<rect opacity="0.2" width="30" height="30" rx="6.81818" fill="white"/>
<path d="M8.24805 12.1815C8.24805 10.8382 9.33698 9.74927 10.6802 9.74927H19.3176C20.6609 9.74927 21.7498 10.8382 21.7498 12.1815V19.3187C21.7498 20.662 20.6609 21.7509 19.3176 21.7509H10.6802C9.33698 21.7509 8.24805 20.662 8.24805 19.3187V12.1815Z" stroke="white" stroke-width="1.5"/>
<path d="M8.24805 14.9998H21.7496V13.4998H8.24805V14.9998Z" fill="white"/>
<path d="M11.249 8.99915C11.249 8.58493 10.9132 8.24915 10.499 8.24915C10.0848 8.24915 9.74902 8.58493 9.74902 8.99915L11.249 8.99915ZM9.74902 11.2491C9.74902 11.6634 10.0848 11.9991 10.499 11.9991C10.9132 11.9991 11.249 11.6634 11.249 11.2491L9.74902 11.2491ZM9.74902 8.99915L9.74902 11.2491L11.249 11.2491L11.249 8.99915L9.74902 8.99915Z" fill="white"/>
<path d="M19.5 8.99921C19.5 8.58499 19.1642 8.24921 18.75 8.24921C18.3358 8.24921 18 8.58499 18 8.99921L19.5 8.99921ZM18 11.2492C18 11.6634 18.3358 11.9992 18.75 11.9992C19.1642 11.9992 19.5 11.6634 19.5 11.2492L18 11.2492ZM18 8.99921L18 11.2492L19.5 11.2492L19.5 8.99921L18 8.99921Z" fill="white"/>
</svg>
