<svg width="29" height="30" viewBox="0 0 29 30" fill="none" xmlns="http://www.w3.org/2000/svg">
<path d="M28.3986 12.7715C28.3986 12.179 27.9183 11.6987 27.3258 11.6987C26.7333 11.6987 26.253 12.179 26.253 12.7715H28.3986ZM16.2188 3.74704C16.8113 3.74704 17.2916 3.26672 17.2916 2.6742C17.2916 2.08169 16.8113 1.60137 16.2188 1.60137V3.74704ZM21.604 27.8543H6.79464V30H21.604V27.8543ZM2.14567 23.2053V8.39601H0V23.2053H2.14567ZM26.253 12.7715V23.2053H28.3986V12.7715H26.253ZM6.79464 3.74704H16.2188V1.60137H6.79464V3.74704ZM6.79464 27.8543C4.22708 27.8543 2.14567 25.7729 2.14567 23.2053H0C0 26.9579 3.04206 30 6.79464 30V27.8543ZM21.604 30C25.3565 30 28.3986 26.9579 28.3986 23.2053H26.253C26.253 25.7729 24.1715 27.8543 21.604 27.8543V30ZM2.14567 8.39601C2.14567 5.82845 4.22709 3.74704 6.79464 3.74704V1.60137C3.04206 1.60137 0 4.64343 0 8.39601H2.14567Z" fill="#123968"/>
<path d="M24.0007 0.295895C24.395 -0.0984286 25.0344 -0.0984286 25.4287 0.295895L27.1101 1.97733C27.5044 2.37165 27.5044 3.01097 27.1101 3.4053L15.4744 15.0411C15.416 15.0994 15.3507 15.1504 15.2799 15.1929L11.0763 17.715C10.175 18.2558 9.15018 17.231 9.69096 16.3297L12.2131 12.1261C12.2556 12.0553 12.3066 11.99 12.3649 11.9317L24.0007 0.295895Z" fill="#123968"/>
</svg>
